<svg width="100" height="100" viewBox="0 0 100 100" fill="none" xmlns="http://www.w3.org/2000/svg">
<path d="M89.8097 33.399C88.5359 34.6727 88.1538 36.4561 88.6633 38.2394C89.9371 42.5702 90.574 47.1558 90.3192 51.8688C89.4276 72.5041 72.741 89.3181 52.1057 90.3371C28.1586 91.6109 8.41496 71.8672 9.68875 47.7927C10.7078 28.1765 28.1586 10.7256 47.7749 9.70661C56.1818 9.1971 64.0793 11.3625 70.703 15.3113C72.6137 16.4577 75.1612 16.0755 76.6898 14.4196C78.7278 12.1268 78.2183 8.5602 75.5434 7.03166C68.5376 2.82817 60.3853 0.280606 51.5962 0.0258489C23.9551 -0.8658 0.517496 21.4254 0.00798301 49.0665C-0.50153 77.9814 23.4456 101.292 52.6153 99.8905C78.9826 98.6167 99.8726 76.4529 100 50.2129C100 44.9904 99.2357 40.0226 97.8346 35.3096C96.8156 31.743 92.3573 30.724 89.8097 33.399Z" fill="url(#paint0_linear_2668_19142)"/>
<path d="M50.0677 64.9888C49.9403 64.9888 49.9403 64.9888 50.0677 64.9888C48.0297 64.9888 46.119 64.0971 44.8452 62.6959L31.5979 47.9201C29.0503 44.9904 29.305 40.6595 32.1074 38.1119C34.9097 35.5644 39.3679 35.8191 41.9155 38.6214L50.0677 47.7927L86.7527 9.70657C89.4276 6.90425 93.8859 6.90424 96.5608 9.57918C99.3632 12.2541 99.3631 16.7123 96.6882 19.3873L54.7807 62.8233C53.7617 64.2245 51.9784 64.9888 50.0677 64.9888Z" fill="url(#paint1_linear_2668_19142)"/>
<path d="M50.0678 24.3551C48.6667 24.3551 47.5203 23.2087 47.5203 21.8076V15.566C47.5203 14.1648 48.6667 13.0184 50.0678 13.0184C51.469 13.0184 52.6154 14.1648 52.6154 15.566V21.8076C52.488 23.2087 51.469 24.3551 50.0678 24.3551Z" fill="url(#paint2_linear_2668_19142)"/>
<path d="M50.0678 86.6431C48.6667 86.6431 47.5203 85.4967 47.5203 84.0955V77.854C47.5203 76.4528 48.6667 75.3064 50.0678 75.3064C51.469 75.3064 52.6154 76.4528 52.6154 77.854V84.0955C52.488 85.624 51.469 86.6431 50.0678 86.6431Z" fill="url(#paint3_linear_2668_19142)"/>
<path d="M84.3326 52.3783H78.091C76.6899 52.3783 75.5435 51.2319 75.5435 49.8308C75.5435 48.4296 76.6899 47.2832 78.091 47.2832H84.3326C85.7337 47.2832 86.8801 48.4296 86.8801 49.8308C86.7527 51.3593 85.7337 52.3783 84.3326 52.3783Z" fill="url(#paint4_linear_2668_19142)"/>
<path d="M22.0445 52.3783H15.8029C14.4018 52.3783 13.2554 51.2319 13.2554 49.8308C13.2554 48.4296 14.4018 47.2832 15.8029 47.2832H22.0445C23.4457 47.2832 24.5921 48.4296 24.5921 49.8308C24.4647 51.3593 23.3183 52.3783 22.0445 52.3783Z" fill="url(#paint5_linear_2668_19142)"/>
<defs>
<linearGradient id="paint0_linear_2668_19142" x1="22.1778" y1="86.1782" x2="84.6285" y2="23.1828" gradientUnits="userSpaceOnUse">
<stop stop-color="#B7E1DE"/>
<stop offset="0.47" stop-color="white"/>
<stop offset="1" stop-color="#C1E8EF"/>
</linearGradient>
<linearGradient id="paint1_linear_2668_19142" x1="45.104" y1="57.0795" x2="80.3323" y2="14.4812" gradientUnits="userSpaceOnUse">
<stop stop-color="#B7E1DE"/>
<stop offset="0.47" stop-color="white"/>
<stop offset="1" stop-color="#C1E8EF"/>
</linearGradient>
<linearGradient id="paint2_linear_2668_19142" x1="48.6503" y1="22.793" x2="53.9763" y2="20.3796" gradientUnits="userSpaceOnUse">
<stop stop-color="#B7E1DE"/>
<stop offset="0.47" stop-color="white"/>
<stop offset="1" stop-color="#C1E8EF"/>
</linearGradient>
<linearGradient id="paint3_linear_2668_19142" x1="48.6503" y1="85.081" x2="53.9763" y2="82.6676" gradientUnits="userSpaceOnUse">
<stop stop-color="#B7E1DE"/>
<stop offset="0.47" stop-color="white"/>
<stop offset="1" stop-color="#C1E8EF"/>
</linearGradient>
<linearGradient id="paint4_linear_2668_19142" x1="78.0577" y1="51.6763" x2="80.4255" y2="46.3645" gradientUnits="userSpaceOnUse">
<stop stop-color="#B7E1DE"/>
<stop offset="0.47" stop-color="white"/>
<stop offset="1" stop-color="#C1E8EF"/>
</linearGradient>
<linearGradient id="paint5_linear_2668_19142" x1="15.7696" y1="51.6763" x2="18.1374" y2="46.3645" gradientUnits="userSpaceOnUse">
<stop stop-color="#B7E1DE"/>
<stop offset="0.47" stop-color="white"/>
<stop offset="1" stop-color="#C1E8EF"/>
</linearGradient>
</defs>
</svg>
