<svg width="50" height="50" viewBox="0 0 50 50" fill="none" xmlns="http://www.w3.org/2000/svg">
<circle cx="25" cy="25" r="25" fill="#F8F8F8"/>
<g clip-path="url(#clip0_1669_8240)">
<path d="M40.5249 29.9834L45.7957 28.5459C46.1785 26.1975 46.1785 23.8026 45.7957 21.4542L40.5249 20.0167C40.274 19.9475 40.042 19.8224 39.8464 19.6508C39.6507 19.4792 39.4963 19.2656 39.3949 19.0259C39.2935 18.7862 39.2477 18.5267 39.2608 18.2668C39.2739 18.0069 39.3457 17.7533 39.4707 17.525L42.1541 12.7334C40.825 10.8294 39.1705 9.17493 37.2666 7.84586L32.4749 10.5292L31.7082 10.7209C31.3228 10.736 30.9435 10.6214 30.6308 10.3956C30.3181 10.1698 30.0901 9.84565 29.9832 9.47503L28.5457 4.20419C26.1973 3.82142 23.8025 3.82142 21.4541 4.20419L20.0166 9.47503C19.9097 9.84565 19.6817 10.1698 19.369 10.3956C19.0564 10.6214 18.677 10.736 18.2916 10.7209L17.5249 10.5292L12.7332 7.84586C10.8293 9.17493 9.1748 10.8294 7.84574 12.7334L10.5291 17.525C10.6541 17.7533 10.7259 18.0069 10.739 18.2668C10.7521 18.5267 10.7063 18.7862 10.6049 19.0259C10.5035 19.2656 10.3491 19.4792 10.1535 19.6508C9.95776 19.8224 9.72579 19.9475 9.4749 20.0167L4.20407 21.4542C3.8213 23.8026 3.8213 26.1975 4.20407 28.5459L9.4749 29.9834C9.72579 30.0526 9.95776 30.1776 10.1535 30.3492C10.3491 30.5208 10.5035 30.7344 10.6049 30.9741C10.7063 31.2138 10.7521 31.4733 10.739 31.7333C10.7259 31.9932 10.6541 32.2468 10.5291 32.475L7.84574 37.2667C9.1748 39.1706 10.8293 40.8251 12.7332 42.1542L17.5249 39.4709L18.2916 39.2792C18.677 39.2641 19.0564 39.3786 19.369 39.6045C19.6817 39.8303 19.9097 40.1544 20.0166 40.525L21.4541 45.7959C23.8025 46.1786 26.1973 46.1786 28.5457 45.7959L29.9832 40.525C30.0901 40.1544 30.3181 39.8303 30.6308 39.6045C30.9435 39.3786 31.3228 39.2641 31.7082 39.2792L32.4749 39.4709L37.2666 42.1542C39.1705 40.8251 40.825 39.1706 42.1541 37.2667L39.4707 32.475C39.3457 32.2468 39.2739 31.9932 39.2608 31.7333C39.2477 31.4733 39.2935 31.2138 39.3949 30.9741C39.4963 30.7344 39.6507 30.5208 39.8464 30.3492C40.042 30.1776 40.274 30.0526 40.5249 29.9834ZM24.9999 33.625C23.294 33.625 21.6265 33.1192 20.2081 32.1714C18.7897 31.2237 17.6842 29.8767 17.0314 28.3007C16.3786 26.7247 16.2078 24.9905 16.5406 23.3174C16.8734 21.6443 17.6949 20.1075 18.9011 18.9012C20.1073 17.695 21.6442 16.8735 23.3172 16.5408C24.9903 16.208 26.7245 16.3788 28.3005 17.0316C29.8766 17.6844 31.2236 18.7899 32.1713 20.2082C33.1191 21.6266 33.6249 23.2942 33.6249 25C33.6249 27.2875 32.7162 29.4813 31.0987 31.0988C29.4812 32.7163 27.2874 33.625 24.9999 33.625Z" fill="url(#paint0_linear_1669_8240)"/>
</g>
<defs>
<linearGradient id="paint0_linear_1669_8240" x1="24.9999" y1="3.91711" x2="24.9999" y2="46.0829" gradientUnits="userSpaceOnUse">
<stop stop-color="#812D89"/>
<stop offset="1" stop-color="#812D89"/>
</linearGradient>
<clipPath id="clip0_1669_8240">
<rect width="46" height="46" fill="white" transform="translate(2 2)"/>
</clipPath>
</defs>
</svg>
